<svg xmlns="http://www.w3.org/2000/svg" xmlns:xlink="http://www.w3.org/1999/xlink" width="6.758" height="12" viewBox="0 0 6.758 12">
  <defs>
    <rect id="rect-1" width="6.758" height="12" x="0" y="0"/>
    <mask id="mask-2" maskContentUnits="userSpaceOnUse" maskUnits="userSpaceOnUse">
      <rect width="6.758" height="12" x="0" y="0" fill="black"/>
      <use fill="white" xlink:href="#rect-1"/>
    </mask>
  </defs>
  <g>
    <use fill="none" xlink:href="#rect-1"/>
    <g mask="url(#mask-2)">
      <path fill="rgb(109,120,130)" fill-rule="evenodd" d="M1.455316.19170732C1.33702044.06804878 1.1789813 0 1.01042181 0c-.1685595 0-.32659863.06804878-.4448942.19170732L.18843129.58487805c-.2452412.25609756-.2452412.67268293 0 .92829268l4.29838394 4.48439025-4.30305966 4.48926829C.06546 10.6104878 0 10.77512195 0 10.9509756c0 .17585366.06546.3407317.18375556.46439024l.37686256.39317074c.11852935.12365853.2763347.19170731.44489419.19170731.1685595 0 .32659863-.06804878.4448942-.19170731l5.12364747-5.34512196c.11876314-.12390243.18375556-.2895122.18352178-.46560975.00046757-.17658537-.06475864-.34219512-.18352178-.46609756l-5.11873798-5.34z"/>
    </g>
  </g>
</svg>
